<svg width="111" height="110" viewBox="0 0 111 110" fill="none" xmlns="http://www.w3.org/2000/svg">
<g id="Frame 1000007211">
<path id="Ellipse 3691" d="M15.3499 21.7313C16.9777 20.1035 19.4281 19.3724 22.5571 19.5268C25.6862 19.6813 29.4373 20.7212 33.5732 22.5657C41.8417 26.2531 51.5482 33.1112 60.7143 42.2773C69.8803 51.4433 76.7385 61.1498 80.4259 69.4183C82.2703 73.5542 83.3102 77.3053 83.4647 80.4344C83.6192 83.5635 82.888 86.0139 81.2603 87.6416C79.6325 89.2694 77.1821 90.0006 74.0531 89.8461C70.924 89.6916 67.1728 88.6517 63.0369 86.8073C54.7685 83.1199 45.0619 76.2617 35.8959 67.0957C26.7299 57.9296 19.8717 48.2231 16.1843 39.9546C14.3398 35.8187 13.3 32.0676 13.1455 28.9385C12.991 25.8094 13.7221 23.359 15.3499 21.7313Z" stroke="white"/>
<path id="Ellipse 3692" d="M81.4552 21.5448C83.2943 23.3839 84.2031 26.0393 84.2151 29.3345C84.227 32.6326 83.3386 36.5345 81.6237 40.7952C78.1948 49.3148 71.4998 59.1756 62.3377 68.3377C53.1757 77.4997 43.3148 84.1948 34.7952 87.6237C30.5345 89.3385 26.6326 90.227 23.3345 90.215C20.0394 90.203 17.3839 89.2942 15.5448 87.4551C13.7057 85.616 12.7969 82.9606 12.7849 79.6654C12.773 76.3673 13.6614 72.4655 15.3763 68.2047C18.8052 59.6852 25.5002 49.8243 34.6623 40.6623C43.8243 31.5002 53.6852 24.8051 62.2048 21.3762C66.4655 19.6614 70.3674 18.7729 73.6655 18.7849C76.9606 18.7969 79.6161 19.7057 81.4552 21.5448Z" stroke="white"/>
<circle id="Ellipse 3665" opacity="0.3" cx="66" cy="64" r="10" fill="#FCC245"/>
<circle id="Ellipse 3668" cx="66" cy="64" r="7" fill="#FCC245"/>
<circle id="Ellipse 3669" opacity="0.3" cx="16" cy="38" r="14" fill="#0BCCBF"/>
<circle id="Ellipse 3670" cx="16" cy="38" r="11" fill="#0BCCBF"/>
</g>
</svg>
