<svg width="140" height="140" viewBox="0 0 140 140" fill="none" xmlns="http://www.w3.org/2000/svg">
<g id="Frame 1000007178">
<circle id="Ellipse 3662" cx="70" cy="65" r="30.5" fill="#05080A" stroke="white"/>
<path id="Vector" d="M70.0935 78.1913L70.0936 78.191L78.3849 63.3451C78.3849 63.345 78.3849 63.345 78.3849 63.3449C78.6036 62.953 78.4927 62.4406 78.2149 62.2199L78.2146 62.2196C78.1226 62.1465 78.0261 62.1156 77.937 62.1156H77.9368H72.4176C71.5892 62.1156 70.9176 61.444 70.9176 60.6156V52.2694C70.9176 51.7578 70.5861 51.5 70.3546 51.5C70.2085 51.5 70.0301 51.5876 69.9064 51.809L70.0935 78.1913ZM70.0935 78.1913C69.9703 78.4121 69.7918 78.5 69.6454 78.5C69.4139 78.5 69.0824 78.2422 69.0824 77.7306V69.3848C69.0824 68.5564 68.4108 67.8848 67.5824 67.8848H62.0633C62.0633 67.8848 62.0633 67.8848 62.0633 67.8848C61.974 67.8848 61.8773 67.8537 61.7852 67.7804L61.7851 67.7803C61.5072 67.5591 61.3965 67.0468 61.6151 66.6551C61.6151 66.655 61.6151 66.655 61.6152 66.6549L69.9064 51.8091L70.0935 78.1913Z" fill="#05080A" stroke="white"/>
<g id="Union">
<mask id="path-3-inside-1_123_20072" fill="white">
<path fill-rule="evenodd" clip-rule="evenodd" d="M55 92C52.7909 92 51 93.7909 51 96V100C51 102.209 52.7909 104 55 104H85C87.2091 104 89 102.209 89 100V96C89 93.7909 87.2091 92 85 92H55ZM54.5 107C52.567 107 51 108.567 51 110.5C51 112.433 52.567 114 54.5 114H85.5C87.433 114 89 112.433 89 110.5C89 108.567 87.433 107 85.5 107H54.5Z"/>
</mask>
<path fill-rule="evenodd" clip-rule="evenodd" d="M55 92C52.7909 92 51 93.7909 51 96V100C51 102.209 52.7909 104 55 104H85C87.2091 104 89 102.209 89 100V96C89 93.7909 87.2091 92 85 92H55ZM54.5 107C52.567 107 51 108.567 51 110.5C51 112.433 52.567 114 54.5 114H85.5C87.433 114 89 112.433 89 110.5C89 108.567 87.433 107 85.5 107H54.5Z" fill="#05080A"/>
<path d="M52 96C52 94.3431 53.3431 93 55 93V91C52.2386 91 50 93.2386 50 96H52ZM52 100V96H50V100H52ZM55 103C53.3431 103 52 101.657 52 100H50C50 102.761 52.2386 105 55 105V103ZM85 103H55V105H85V103ZM88 100C88 101.657 86.6569 103 85 103V105C87.7614 105 90 102.761 90 100H88ZM88 96V100H90V96H88ZM85 93C86.6569 93 88 94.3431 88 96H90C90 93.2386 87.7614 91 85 91V93ZM55 93H85V91H55V93ZM52 110.5C52 109.119 53.1193 108 54.5 108V106C52.0147 106 50 108.015 50 110.5H52ZM54.5 113C53.1193 113 52 111.881 52 110.5H50C50 112.985 52.0147 115 54.5 115V113ZM85.5 113H54.5V115H85.5V113ZM88 110.5C88 111.881 86.8807 113 85.5 113V115C87.9853 115 90 112.985 90 110.5H88ZM85.5 108C86.8807 108 88 109.119 88 110.5H90C90 108.015 87.9853 106 85.5 106V108ZM54.5 108H85.5V106H54.5V108Z" fill="white" mask="url(#path-3-inside-1_123_20072)"/>
</g>
<path id="Union_2" opacity="0.4" fill-rule="evenodd" clip-rule="evenodd" d="M35.493 42.768C36.4496 43.3203 36.7774 44.5435 36.2251 45.5001C35.6728 46.4567 34.4496 46.7844 33.493 46.2321L24.8328 41.2321C23.8762 40.6799 23.5485 39.4567 24.1007 38.5001C24.653 37.5435 25.8762 37.2158 26.8328 37.768L35.493 42.768ZM115.899 38.5001C115.347 37.5435 114.124 37.2158 113.167 37.768L104.507 42.768C103.551 43.3203 103.223 44.5435 103.775 45.5001C104.327 46.4567 105.551 46.7844 106.507 46.2321L115.167 41.2321C116.124 40.6799 116.452 39.4567 115.899 38.5001ZM31 65C31 63.8954 30.1046 63 29 63H19C17.8954 63 17 63.8954 17 65C17 66.1045 17.8954 67 19 67H29C30.1046 67 31 66.1045 31 65ZM123 65C123 63.8954 122.105 63 121 63H111C109.895 63 109 63.8954 109 65C109 66.1045 109.895 67 111 67H121C122.105 67 123 66.1045 123 65ZM33.493 83.768C34.4496 83.2158 35.6728 83.5435 36.2251 84.5001C36.7774 85.4567 36.4496 86.6799 35.493 87.2321L26.8328 92.2321C25.8762 92.7844 24.653 92.4567 24.1007 91.5001C23.5485 90.5435 23.8762 89.3203 24.8328 88.768L33.493 83.768ZM115.899 91.5001C116.452 90.5435 116.124 89.3203 115.167 88.768L106.507 83.768C105.551 83.2158 104.327 83.5435 103.775 84.5001C103.223 85.4567 103.551 86.6799 104.507 87.2321L113.167 92.2321C114.124 92.7844 115.347 92.4567 115.899 91.5001Z" fill="url(#paint0_radial_123_20072)"/>
</g>
<defs>
<radialGradient id="paint0_radial_123_20072" cx="0" cy="0" r="1" gradientUnits="userSpaceOnUse" gradientTransform="translate(70 65.0001) scale(73 73)">
<stop offset="0.383815" stop-color="#0BCCBF"/>
<stop offset="1" stop-color="#0BCCBF" stop-opacity="0"/>
</radialGradient>
</defs>
</svg>
