<svg width="140" height="140" viewBox="0 0 140 140" fill="none" xmlns="http://www.w3.org/2000/svg">
<g id="Frame 1000007176" clip-path="url(#clip0_123_20090)">
<path id="Union" opacity="0.4" fill-rule="evenodd" clip-rule="evenodd" d="M-7 8C-8.10457 8 -9 8.89543 -9 10V21C-9 22.1046 -8.10457 23 -7 23H19C20.1046 23 21 22.1046 21 21V10C21 8.89543 20.1046 8 19 8H-7ZM9 25C7.89543 25 7 25.8954 7 27V38C7 39.1046 7.89543 40 9 40H35C36.1046 40 37 39.1046 37 38V27C37 25.8954 36.1046 25 35 25H9ZM23 10C23 8.89543 23.8954 8 25 8H51C52.1046 8 53 8.89543 53 10V21C53 22.1046 52.1046 23 51 23H25C23.8954 23 23 22.1046 23 21V10ZM41 25C39.8954 25 39 25.8954 39 27V38C39 39.1046 39.8954 40 41 40H67C68.1046 40 69 39.1046 69 38V27C69 25.8954 68.1046 25 67 25H41ZM55 10C55 8.89543 55.8954 8 57 8H83C84.1046 8 85 8.89543 85 10V21C85 22.1046 84.1046 23 83 23H57C55.8954 23 55 22.1046 55 21V10ZM73 25C71.8954 25 71 25.8954 71 27V38C71 39.1046 71.8954 40 73 40H99C100.105 40 101 39.1046 101 38V27C101 25.8954 100.105 25 99 25H73ZM87 10C87 8.89543 87.8954 8 89 8H115C116.105 8 117 8.89543 117 10V21C117 22.1046 116.105 23 115 23H89C87.8954 23 87 22.1046 87 21V10ZM105 25C103.895 25 103 25.8954 103 27V38C103 39.1046 103.895 40 105 40H131C132.105 40 133 39.1046 133 38V27C133 25.8954 132.105 25 131 25H105ZM119 10C119 8.89543 119.895 8 121 8H147C148.105 8 149 8.89543 149 10V21C149 22.1046 148.105 23 147 23H121C119.895 23 119 22.1046 119 21V10ZM137 25C135.895 25 135 25.8954 135 27V38C135 39.1046 135.895 40 137 40H163C164.105 40 165 39.1046 165 38V27C165 25.8954 164.105 25 163 25H137ZM-25 27C-25 25.8954 -24.1046 25 -23 25H3C4.10457 25 5 25.8954 5 27V38C5 39.1046 4.10457 40 3 40H-23C-24.1046 40 -25 39.1046 -25 38V27ZM-7 76C-8.10457 76 -9 76.8954 -9 78V89C-9 90.1046 -8.10457 91 -7 91H19C20.1046 91 21 90.1046 21 89V78C21 76.8954 20.1046 76 19 76H-7ZM9 93C7.89543 93 7 93.8954 7 95V106C7 107.105 7.89543 108 9 108H35C36.1046 108 37 107.105 37 106V95C37 93.8954 36.1046 93 35 93H9ZM23 78C23 76.8954 23.8954 76 25 76H51C52.1046 76 53 76.8954 53 78V89C53 90.1046 52.1046 91 51 91H25C23.8954 91 23 90.1046 23 89V78ZM41 93C39.8954 93 39 93.8954 39 95V106C39 107.105 39.8954 108 41 108H67C68.1046 108 69 107.105 69 106V95C69 93.8954 68.1046 93 67 93H41ZM55 78C55 76.8954 55.8954 76 57 76H83C84.1046 76 85 76.8954 85 78V89C85 90.1046 84.1046 91 83 91H57C55.8954 91 55 90.1046 55 89V78ZM73 93C71.8954 93 71 93.8954 71 95V106C71 107.105 71.8954 108 73 108H99C100.105 108 101 107.105 101 106V95C101 93.8954 100.105 93 99 93H73ZM87 78C87 76.8954 87.8954 76 89 76H115C116.105 76 117 76.8954 117 78V89C117 90.1046 116.105 91 115 91H89C87.8954 91 87 90.1046 87 89V78ZM105 93C103.895 93 103 93.8954 103 95V106C103 107.105 103.895 108 105 108H131C132.105 108 133 107.105 133 106V95C133 93.8954 132.105 93 131 93H105ZM119 78C119 76.8954 119.895 76 121 76H147C148.105 76 149 76.8954 149 78V89C149 90.1046 148.105 91 147 91H121C119.895 91 119 90.1046 119 89V78ZM137 93C135.895 93 135 93.8954 135 95V106C135 107.105 135.895 108 137 108H163C164.105 108 165 107.105 165 106V95C165 93.8954 164.105 93 163 93H137ZM-25 95C-25 93.8954 -24.1046 93 -23 93H3C4.10457 93 5 93.8954 5 95V106C5 107.105 4.10457 108 3 108H-23C-24.1046 108 -25 107.105 -25 106V95ZM-9 44C-9 42.8954 -8.10457 42 -7 42H19C20.1046 42 21 42.8954 21 44V55C21 56.1046 20.1046 57 19 57H-7C-8.10457 57 -9 56.1046 -9 55V44ZM7 61C7 59.8954 7.89543 59 9 59H35C36.1046 59 37 59.8954 37 61V72C37 73.1046 36.1046 74 35 74H9C7.89543 74 7 73.1046 7 72V61ZM25 42C23.8954 42 23 42.8954 23 44V55C23 56.1046 23.8954 57 25 57H51C52.1046 57 53 56.1046 53 55V44C53 42.8954 52.1046 42 51 42H25ZM39 61C39 59.8954 39.8954 59 41 59H67C68.1046 59 69 59.8954 69 61V72C69 73.1046 68.1046 74 67 74H41C39.8954 74 39 73.1046 39 72V61ZM57 42C55.8954 42 55 42.8954 55 44V55C55 56.1046 55.8954 57 57 57H83C84.1046 57 85 56.1046 85 55V44C85 42.8954 84.1046 42 83 42H57ZM71 61C71 59.8954 71.8954 59 73 59H99C100.105 59 101 59.8954 101 61V72C101 73.1046 100.105 74 99 74H73C71.8954 74 71 73.1046 71 72V61ZM89 42C87.8954 42 87 42.8954 87 44V55C87 56.1046 87.8954 57 89 57H115C116.105 57 117 56.1046 117 55V44C117 42.8954 116.105 42 115 42H89ZM103 61C103 59.8954 103.895 59 105 59H131C132.105 59 133 59.8954 133 61V72C133 73.1046 132.105 74 131 74H105C103.895 74 103 73.1046 103 72V61ZM121 42C119.895 42 119 42.8954 119 44V55C119 56.1046 119.895 57 121 57H147C148.105 57 149 56.1046 149 55V44C149 42.8954 148.105 42 147 42H121ZM135 61C135 59.8954 135.895 59 137 59H163C164.105 59 165 59.8954 165 61V72C165 73.1046 164.105 74 163 74H137C135.895 74 135 73.1046 135 72V61ZM-23 59C-24.1046 59 -25 59.8954 -25 61V72C-25 73.1046 -24.1046 74 -23 74H3C4.10457 74 5 73.1046 5 72V61C5 59.8954 4.10457 59 3 59H-23ZM-7 110C-8.10457 110 -9 110.895 -9 112V123C-9 124.105 -8.10457 125 -7 125H19C20.1046 125 21 124.105 21 123V112C21 110.895 20.1046 110 19 110H-7ZM25 110C23.8954 110 23 110.895 23 112V123C23 124.105 23.8954 125 25 125H51C52.1046 125 53 124.105 53 123V112C53 110.895 52.1046 110 51 110H25ZM55 112C55 110.895 55.8954 110 57 110H83C84.1046 110 85 110.895 85 112V123C85 124.105 84.1046 125 83 125H57C55.8954 125 55 124.105 55 123V112ZM89 110C87.8954 110 87 110.895 87 112V123C87 124.105 87.8954 125 89 125H115C116.105 125 117 124.105 117 123V112C117 110.895 116.105 110 115 110H89ZM119 112C119 110.895 119.895 110 121 110H147C148.105 110 149 110.895 149 112V123C149 124.105 148.105 125 147 125H121C119.895 125 119 124.105 119 123V112Z" fill="url(#paint0_radial_123_20090)"/>
<path id="Rectangle 40160" d="M34.5 46.2616C34.5 43.6467 36.3015 41.3764 38.848 40.7822L68.7215 33.8118C69.5625 33.6155 70.4375 33.6155 71.2785 33.8118L101.152 40.7822C103.698 41.3764 105.5 43.6467 105.5 46.2616V91.5181C105.5 93.4762 104.482 95.2934 102.812 96.3161L72.9388 114.614C71.1353 115.718 68.8647 115.718 67.0612 114.614L37.1877 96.3161C35.518 95.2934 34.5 93.4762 34.5 91.5181V46.2616Z" fill="#05080A" stroke="white"/>
<g id="Union_2">
<mask id="path-3-inside-1_123_20090" fill="white">
<path fill-rule="evenodd" clip-rule="evenodd" d="M66 77H74V72H77V67H74V63H77V58L74 58V55L66 55L66 77Z"/>
</mask>
<path fill-rule="evenodd" clip-rule="evenodd" d="M66 77H74V72H77V67H74V63H77V58L74 58V55L66 55L66 77Z" fill="#05080A"/>
<path d="M74 77V78H75V77H74ZM66 77H65L65 78H66V77ZM74 72V71H73V72H74ZM77 72V73H78V72H77ZM77 67H78V66H77V67ZM74 67H73V68H74V67ZM74 63V62H73V63H74ZM77 63V64H78V63H77ZM77 58H78V57L77 57V58ZM74 58H73V59L74 59V58ZM74 55H75V54L74 54V55ZM66 55L66 54L65 54L65 55L66 55ZM74 76H66V78H74V76ZM73 72V77H75V72H73ZM74 73H77V71H74V73ZM78 72V67H76V72H78ZM77 66H74V68H77V66ZM73 63V67H75V63H73ZM74 64H77V62H74V64ZM78 63V58H76V63H78ZM77 57L74 57V59L77 59V57ZM73 55V58H75V55H73ZM66 56L74 56V54L66 54L66 56ZM67 77L67 55L65 55L65 77H67Z" fill="white" mask="url(#path-3-inside-1_123_20090)"/>
</g>
<path id="Ellipse 3661" d="M62.5 83C62.5 78.8579 65.8579 75.5 70 75.5C74.1421 75.5 77.5 78.8579 77.5 83C77.5 87.1421 74.1421 90.5 70 90.5C65.8579 90.5 62.5 87.1421 62.5 83Z" fill="#05080A" stroke="white"/>
</g>
<defs>
<radialGradient id="paint0_radial_123_20090" cx="0" cy="0" r="1" gradientUnits="userSpaceOnUse" gradientTransform="translate(70 66.5) scale(70 62.5087)">
<stop stop-color="#0BCCBF"/>
<stop offset="1" stop-color="#0BCCBF" stop-opacity="0"/>
</radialGradient>
<clipPath id="clip0_123_20090">
<rect width="140" height="140" fill="white"/>
</clipPath>
</defs>
</svg>
